<svg width="327" height="125" viewBox="0 0 327 125" fill="none" xmlns="http://www.w3.org/2000/svg">
<path d="M2.49533 86.7424V79.0188C10.3378 73.2359 16.8732 68.1661 22.1015 63.8091C27.409 59.4522 31.6471 55.4914 34.8158 51.9266C37.9845 48.3619 40.2421 44.9951 41.5888 41.8265C42.9355 38.5786 43.6088 35.2119 43.6088 31.7263C43.6088 27.0525 42.1037 23.2897 39.0935 20.4379C36.1625 17.5069 32.1224 16.0414 26.9733 16.0414C21.5866 16.0414 17.2693 17.8238 14.0214 21.3885C10.7735 24.8741 8.87228 29.5479 8.31776 35.4099L0 30.4193C0.712951 25.8247 2.17846 21.7846 4.39653 18.2991C6.69382 14.8135 9.74367 12.0806 13.5461 10.1001C17.4277 8.11972 22.0223 7.12951 27.3298 7.12951C31.3699 7.12951 34.9742 7.72364 38.1429 8.91189C41.3908 10.1001 44.1634 11.8033 46.4607 14.0214C48.7579 16.1602 50.5007 18.7348 51.689 21.745C52.9564 24.7552 53.5902 28.0824 53.5902 31.7263C53.5902 36.6378 52.4019 41.47 50.0254 46.223C47.6489 50.8968 43.7277 55.8082 38.2617 60.9573C32.7958 66.1064 25.389 71.81 16.0414 78.0682V78.187C16.9128 78.1078 18.101 78.0682 19.6062 78.0682C21.1905 77.9889 22.7352 77.9493 24.2403 77.9493C25.8247 77.8701 27.0129 77.8305 27.8051 77.8305H55.2537V86.7424H2.49533Z" fill="#222222"/>
<path d="M110.564 50.7384V60.6008H71.3517V50.7384H110.564Z" fill="#222222"/>
<path d="M157.116 87.9306C151.491 87.9306 146.461 86.7028 142.025 84.2471C137.668 81.7914 134.262 78.2662 131.806 73.6716C129.35 68.9978 128.122 63.4527 128.122 57.0361C128.122 50.6195 129.35 45.114 131.806 40.5194C134.262 35.8456 137.628 32.2808 141.906 29.8251C146.184 27.3694 151.056 26.1415 156.522 26.1415C162.067 26.1415 166.78 27.3298 170.662 29.7063C174.623 32.0828 177.633 35.3307 179.692 39.45C181.752 43.49 182.782 48.045 182.782 53.1149C182.782 54.4615 182.742 55.6894 182.663 56.7984C182.584 57.9075 182.465 58.8977 182.307 59.7691H134.301V51.3325H178.148L173.276 52.2831C173.276 46.5795 171.692 42.1829 168.523 39.0935C165.433 36.004 161.354 34.4593 156.284 34.4593C152.402 34.4593 149.036 35.3703 146.184 37.1923C143.411 38.9351 141.233 41.5096 139.648 44.9159C138.143 48.243 137.391 52.2831 137.391 57.0361C137.391 61.7099 138.183 65.7499 139.767 69.1563C141.352 72.5626 143.57 75.1767 146.421 76.9987C149.352 78.7415 152.838 79.6129 156.878 79.6129C161.235 79.6129 164.76 78.7811 167.453 77.1176C170.226 75.454 172.444 73.1963 174.108 70.3445L181.594 74.7411C180.089 77.4344 178.148 79.7713 175.771 81.7517C173.474 83.7322 170.741 85.2769 167.572 86.3859C164.483 87.4157 160.997 87.9306 157.116 87.9306Z" fill="#222222"/>
<path d="M200.861 86.7424V27.3298H209.179L210.011 40.6382L208.466 39.3311C209.733 36.1625 211.436 33.6275 213.575 31.7263C215.714 29.7459 218.17 28.32 220.942 27.4486C223.794 26.5772 226.725 26.1415 229.736 26.1415C234.013 26.1415 237.895 26.9733 241.38 28.6369C244.866 30.2212 247.639 32.6769 249.698 36.004C251.837 39.3311 252.906 43.5692 252.906 48.7183V86.7424H243.4V52.0454C243.4 45.4704 241.975 40.9155 239.123 38.3805C236.35 35.7664 232.904 34.4593 228.785 34.4593C225.933 34.4593 223.081 35.1326 220.229 36.4793C217.378 37.826 215.001 40.0045 213.1 43.0147C211.278 46.025 210.367 50.065 210.367 55.1349V86.7424H200.861Z" fill="#222222"/>
<path d="M297.601 87.9306C292.69 87.9306 288.175 86.7028 284.055 84.2471C279.936 81.7914 276.649 78.2662 274.193 73.6716C271.737 68.9978 270.509 63.4527 270.509 57.0361C270.509 50.4611 271.816 44.8763 274.43 40.2817C277.045 35.6872 280.491 32.2016 284.768 29.8251C289.046 27.3694 293.641 26.1415 298.552 26.1415C303.463 26.1415 307.702 27.409 311.266 29.9439C314.91 32.4789 317.326 35.8456 318.515 40.0441L317.326 40.8759V0H326.832V86.7424H318.515L317.683 72.3645L318.99 71.6516C318.435 75.1371 317.089 78.1078 314.95 80.5635C312.89 82.94 310.316 84.762 307.226 86.0294C304.216 87.2969 301.008 87.9306 297.601 87.9306ZM298.552 79.6129C302.354 79.6129 305.642 78.6623 308.414 76.7611C311.266 74.8599 313.445 72.1665 314.95 68.681C316.534 65.1162 317.326 60.9573 317.326 56.2043C317.326 51.689 316.534 47.8073 314.95 44.5594C313.445 41.3116 311.306 38.8162 308.533 37.0735C305.84 35.3307 302.671 34.4593 299.027 34.4593C293.007 34.4593 288.333 36.5189 285.006 40.6382C281.679 44.7575 280.015 50.2234 280.015 57.0361C280.015 63.8487 281.639 69.3147 284.887 73.434C288.135 77.5532 292.69 79.6129 298.552 79.6129Z" fill="#222222"/>
<path d="M8.15019 119.671C7.08274 119.671 6.07629 119.473 5.13084 119.076C4.18539 118.665 3.23231 118.024 2.27161 117.155L3.3238 115.828C4.26926 116.682 5.10796 117.284 5.83993 117.635C6.57189 117.986 7.35723 118.161 8.19593 118.161C8.8974 118.161 9.51499 118.032 10.0487 117.772C10.5977 117.498 11.0247 117.132 11.3297 116.674C11.6499 116.202 11.81 115.676 11.81 115.096C11.81 114.44 11.6423 113.922 11.3068 113.541C10.9865 113.144 10.5596 112.839 10.0258 112.626C9.49212 112.397 8.90502 112.206 8.26456 112.054C7.62409 111.886 6.976 111.711 6.32028 111.528C5.67981 111.345 5.09271 111.101 4.55899 110.796C4.02527 110.476 3.59067 110.049 3.25518 109.515C2.93495 108.981 2.77483 108.287 2.77483 107.433C2.77483 106.595 2.9807 105.855 3.39243 105.215C3.8194 104.574 4.4065 104.071 5.15371 103.705C5.91617 103.339 6.78538 103.156 7.76133 103.156C8.73728 103.156 9.66748 103.316 10.5519 103.636C11.4516 103.941 12.4047 104.452 13.4112 105.169L12.4962 106.541C11.6575 105.901 10.8493 105.428 10.0716 105.123C9.29388 104.803 8.53142 104.643 7.7842 104.643C6.80825 104.643 6.00767 104.894 5.38245 105.398C4.77248 105.886 4.4675 106.503 4.4675 107.25C4.4675 107.921 4.62761 108.455 4.94785 108.852C5.28333 109.248 5.71793 109.561 6.25166 109.789C6.80063 110.018 7.39535 110.216 8.03582 110.384C8.69153 110.537 9.33963 110.704 9.98009 110.887C10.6358 111.07 11.2305 111.322 11.7643 111.642C12.3132 111.947 12.7478 112.367 13.0681 112.9C13.4035 113.434 13.5713 114.135 13.5713 115.005C13.5713 115.889 13.3349 116.69 12.8622 117.406C12.4047 118.108 11.7643 118.665 10.9408 119.076C10.1326 119.473 9.20238 119.671 8.15019 119.671Z" fill="#222222"/>
<path d="M23.5811 119.648C22.5594 119.648 21.6368 119.396 20.8134 118.893C20.0052 118.375 19.3571 117.681 18.8691 116.812C18.3964 115.943 18.16 114.959 18.16 113.861C18.16 112.763 18.3964 111.779 18.8691 110.91C19.3571 110.026 20.0052 109.332 20.8134 108.829C21.6368 108.326 22.5594 108.074 23.5811 108.074C24.6028 108.074 25.5178 108.326 26.326 108.829C27.1494 109.332 27.7975 110.026 28.2702 110.91C28.7582 111.779 29.0022 112.763 29.0022 113.861C29.0022 114.959 28.7582 115.943 28.2702 116.812C27.7975 117.681 27.1494 118.375 26.326 118.893C25.5178 119.396 24.6028 119.648 23.5811 119.648ZM23.5811 118.161C24.3131 118.161 24.9612 117.978 25.5254 117.612C26.0896 117.231 26.5318 116.72 26.8521 116.08C27.1875 115.424 27.3553 114.684 27.3553 113.861C27.3553 113.022 27.1875 112.283 26.8521 111.642C26.5318 111.002 26.0896 110.499 25.5254 110.133C24.9612 109.751 24.3131 109.561 23.5811 109.561C22.8491 109.561 22.201 109.751 21.6368 110.133C21.0726 110.499 20.6227 111.002 20.2873 111.642C19.967 112.283 19.8069 113.022 19.8069 113.861C19.8069 114.684 19.967 115.424 20.2873 116.08C20.6227 116.72 21.0726 117.231 21.6368 117.612C22.201 117.978 22.8491 118.161 23.5811 118.161Z" fill="#222222"/>
<path d="M37.3193 119.419V109.629H33.4994V108.257H37.3193V106.015C37.3193 103.667 38.6689 102.493 41.368 102.493C41.8255 102.493 42.283 102.538 42.7405 102.63C43.2132 102.721 43.6783 102.851 44.1358 103.019V104.574C43.5715 104.345 43.0759 104.193 42.649 104.117C42.222 104.025 41.7416 103.98 41.2079 103.98C40.4912 103.98 39.9422 104.162 39.561 104.528C39.1798 104.879 38.9891 105.466 38.9891 106.29V108.257H44.1358V109.629H38.9891V119.419H37.3193Z" fill="#222222"/>
<path d="M56.7303 119.648C55.4799 119.648 54.5192 119.381 53.8482 118.848C53.1925 118.299 52.8646 117.506 52.8646 116.469V109.629H49.0447V108.257H52.8646V105.192L54.5344 104.803V108.257H59.681V109.629H54.5344V116.194C54.5344 116.896 54.725 117.399 55.1063 117.704C55.4875 118.009 56.0365 118.161 56.7532 118.161C57.1954 118.161 57.6529 118.116 58.1256 118.024C58.5983 117.933 59.1168 117.78 59.681 117.567V119.076C59.1778 119.259 58.6822 119.396 58.1942 119.488C57.7063 119.595 57.2183 119.648 56.7303 119.648Z" fill="#222222"/>
<path d="M66.7859 119.419L64.5671 108.257H66.0539L67.6322 117.109L69.8738 108.257H71.3606L73.6252 117.109L75.1806 108.257H76.553L74.3342 119.419H72.8246L70.5829 110.43L68.3413 119.419H66.7859Z" fill="#222222"/>
<path d="M85.2133 119.648C84.4051 119.648 83.6807 119.503 83.0402 119.213C82.415 118.924 81.927 118.527 81.5763 118.024C81.2256 117.506 81.0502 116.911 81.0502 116.24C81.0502 115.569 81.2256 114.982 81.5763 114.479C81.9423 113.975 82.4455 113.587 83.086 113.312C83.7417 113.038 84.4965 112.9 85.3505 112.9C86.0215 112.9 86.6467 112.969 87.2262 113.106C87.8056 113.228 88.3546 113.442 88.8731 113.747V112.466C88.8731 111.475 88.6215 110.727 88.1182 110.224C87.615 109.721 86.8678 109.469 85.8766 109.469C85.3124 109.469 84.7482 109.553 84.1839 109.721C83.6197 109.873 82.9869 110.148 82.2854 110.544L81.5992 109.286C82.4074 108.844 83.1775 108.531 83.9095 108.348C84.6414 108.165 85.3657 108.074 86.0825 108.074C87.5006 108.074 88.591 108.432 89.3534 109.149C90.1311 109.866 90.52 110.895 90.52 112.237V119.419H88.8731V118.138C88.3546 118.657 87.7904 119.038 87.1804 119.282C86.5857 119.526 85.93 119.648 85.2133 119.648ZM82.6514 116.194C82.6514 116.85 82.9182 117.376 83.452 117.772C83.9857 118.169 84.6872 118.367 85.5564 118.367C86.2121 118.367 86.8068 118.268 87.3405 118.07C87.8895 117.856 88.4003 117.521 88.8731 117.063V114.913C88.4003 114.623 87.8971 114.418 87.3634 114.296C86.8297 114.174 86.2426 114.113 85.6021 114.113C84.7177 114.113 84.0009 114.303 83.452 114.684C82.9182 115.066 82.6514 115.569 82.6514 116.194Z" fill="#222222"/>
<path d="M97.1445 119.419V118.047H100.21V109.629H97.1445V108.257H101.879V110.75C102.215 109.896 102.718 109.24 103.389 108.783C104.06 108.31 104.838 108.074 105.722 108.074C106.073 108.074 106.386 108.104 106.66 108.165C106.934 108.211 107.262 108.295 107.644 108.417V109.95C107.262 109.828 106.896 109.728 106.546 109.652C106.21 109.576 105.875 109.538 105.539 109.538C104.716 109.538 103.984 109.751 103.343 110.178C102.703 110.605 102.215 111.215 101.879 112.008V118.047H105.127V119.419H97.1445Z" fill="#222222"/>
<path d="M117.813 119.648C116.746 119.648 115.785 119.396 114.931 118.893C114.077 118.375 113.399 117.681 112.896 116.812C112.408 115.927 112.164 114.936 112.164 113.838C112.164 112.74 112.4 111.757 112.873 110.887C113.345 110.018 113.986 109.332 114.794 108.829C115.618 108.326 116.533 108.074 117.539 108.074C118.591 108.074 119.529 108.326 120.352 108.829C121.176 109.317 121.824 109.988 122.297 110.842C122.77 111.68 123.006 112.633 123.006 113.701V114.204H113.788C113.849 114.967 114.062 115.653 114.428 116.263C114.794 116.857 115.275 117.33 115.869 117.681C116.479 118.016 117.15 118.184 117.882 118.184C118.538 118.184 119.148 118.062 119.712 117.818C120.291 117.559 120.772 117.208 121.153 116.766L122.32 117.795C121.725 118.405 121.046 118.87 120.284 119.191C119.521 119.496 118.698 119.648 117.813 119.648ZM113.833 112.969H121.359C121.267 112.298 121.039 111.703 120.673 111.185C120.322 110.666 119.872 110.262 119.323 109.972C118.789 109.667 118.187 109.515 117.516 109.515C116.891 109.515 116.319 109.66 115.801 109.95C115.282 110.239 114.848 110.643 114.497 111.162C114.161 111.68 113.94 112.283 113.833 112.969Z" fill="#222222"/>
<path d="M148.401 119.579C147.44 119.579 146.571 119.328 145.793 118.825C145.016 118.306 144.398 117.62 143.94 116.766C143.483 115.897 143.254 114.928 143.254 113.861C143.254 112.778 143.483 111.81 143.94 110.956C144.413 110.087 145.046 109.401 145.839 108.897C146.632 108.379 147.516 108.12 148.492 108.12C149.179 108.12 149.819 108.257 150.414 108.531C151.008 108.791 151.527 109.172 151.969 109.675V102.904L153.639 102.561V119.419H151.969V117.933C151.542 118.466 151.024 118.878 150.414 119.168C149.804 119.442 149.133 119.579 148.401 119.579ZM148.813 118.116C149.468 118.116 150.071 117.986 150.62 117.727C151.169 117.467 151.618 117.101 151.969 116.629V111.093C151.603 110.621 151.138 110.255 150.574 109.995C150.025 109.721 149.438 109.584 148.813 109.584C148.065 109.584 147.394 109.767 146.8 110.133C146.22 110.499 145.755 111.002 145.404 111.642C145.069 112.283 144.901 113.015 144.901 113.838C144.901 114.646 145.069 115.378 145.404 116.034C145.755 116.674 146.22 117.185 146.8 117.567C147.394 117.933 148.065 118.116 148.813 118.116Z" fill="#222222"/>
<path d="M164.792 119.648C163.725 119.648 162.764 119.396 161.91 118.893C161.056 118.375 160.378 117.681 159.875 116.812C159.387 115.927 159.143 114.936 159.143 113.838C159.143 112.74 159.379 111.757 159.852 110.887C160.324 110.018 160.965 109.332 161.773 108.829C162.597 108.326 163.512 108.074 164.518 108.074C165.57 108.074 166.508 108.326 167.331 108.829C168.155 109.317 168.803 109.988 169.276 110.842C169.748 111.68 169.985 112.633 169.985 113.701V114.204H160.767C160.828 114.967 161.041 115.653 161.407 116.263C161.773 116.857 162.253 117.33 162.848 117.681C163.458 118.016 164.129 118.184 164.861 118.184C165.517 118.184 166.127 118.062 166.691 117.818C167.27 117.559 167.751 117.208 168.132 116.766L169.299 117.795C168.704 118.405 168.025 118.87 167.263 119.191C166.5 119.496 165.677 119.648 164.792 119.648ZM160.812 112.969H168.338C168.246 112.298 168.018 111.703 167.652 111.185C167.301 110.666 166.851 110.262 166.302 109.972C165.768 109.667 165.166 109.515 164.495 109.515C163.87 109.515 163.298 109.66 162.78 109.95C162.261 110.239 161.826 110.643 161.476 111.162C161.14 111.68 160.919 112.283 160.812 112.969Z" fill="#222222"/>
<path d="M179.377 119.419L174.574 108.257H176.381L180.223 117.521L183.998 108.257H185.782L180.978 119.419H179.377Z" fill="#222222"/>
<path d="M196.112 119.648C195.044 119.648 194.084 119.396 193.23 118.893C192.376 118.375 191.697 117.681 191.194 116.812C190.706 115.927 190.462 114.936 190.462 113.838C190.462 112.74 190.698 111.757 191.171 110.887C191.644 110.018 192.284 109.332 193.092 108.829C193.916 108.326 194.831 108.074 195.837 108.074C196.889 108.074 197.827 108.326 198.651 108.829C199.474 109.317 200.122 109.988 200.595 110.842C201.068 111.68 201.304 112.633 201.304 113.701V114.204H192.086C192.147 114.967 192.36 115.653 192.726 116.263C193.092 116.857 193.573 117.33 194.167 117.681C194.777 118.016 195.448 118.184 196.18 118.184C196.836 118.184 197.446 118.062 198.01 117.818C198.59 117.559 199.07 117.208 199.451 116.766L200.618 117.795C200.023 118.405 199.345 118.87 198.582 119.191C197.82 119.496 196.996 119.648 196.112 119.648ZM192.132 112.969H199.657C199.566 112.298 199.337 111.703 198.971 111.185C198.62 110.666 198.17 110.262 197.621 109.972C197.088 109.667 196.485 109.515 195.814 109.515C195.189 109.515 194.617 109.66 194.099 109.95C193.58 110.239 193.146 110.643 192.795 111.162C192.46 111.68 192.238 112.283 192.132 112.969Z" fill="#222222"/>
<path d="M214.127 119.648C212.953 119.648 212.054 119.374 211.428 118.825C210.803 118.276 210.49 117.452 210.49 116.354V104.162H206.35V102.79H212.16V116.194C212.16 116.896 212.328 117.399 212.663 117.704C212.999 118.009 213.495 118.161 214.15 118.161C214.547 118.161 214.951 118.123 215.363 118.047C215.774 117.955 216.232 117.811 216.735 117.612V119.122C216.293 119.274 215.851 119.396 215.408 119.488C214.981 119.595 214.554 119.648 214.127 119.648Z" fill="#222222"/>
<path d="M227.157 119.648C226.135 119.648 225.212 119.396 224.389 118.893C223.581 118.375 222.933 117.681 222.445 116.812C221.972 115.943 221.735 114.959 221.735 113.861C221.735 112.763 221.972 111.779 222.445 110.91C222.933 110.026 223.581 109.332 224.389 108.829C225.212 108.326 226.135 108.074 227.157 108.074C228.178 108.074 229.093 108.326 229.901 108.829C230.725 109.332 231.373 110.026 231.846 110.91C232.334 111.779 232.578 112.763 232.578 113.861C232.578 114.959 232.334 115.943 231.846 116.812C231.373 117.681 230.725 118.375 229.901 118.893C229.093 119.396 228.178 119.648 227.157 119.648ZM227.157 118.161C227.889 118.161 228.537 117.978 229.101 117.612C229.665 117.231 230.107 116.72 230.428 116.08C230.763 115.424 230.931 114.684 230.931 113.861C230.931 113.022 230.763 112.283 230.428 111.642C230.107 111.002 229.665 110.499 229.101 110.133C228.537 109.751 227.889 109.561 227.157 109.561C226.425 109.561 225.777 109.751 225.212 110.133C224.648 110.499 224.198 111.002 223.863 111.642C223.542 112.283 223.382 113.022 223.382 113.861C223.382 114.684 223.542 115.424 223.863 116.08C224.198 116.72 224.648 117.231 225.212 117.612C225.777 117.978 226.425 118.161 227.157 118.161Z" fill="#222222"/>
<path d="M238.013 124.2V108.257H239.66V109.858C240.087 109.294 240.605 108.867 241.215 108.577C241.84 108.272 242.526 108.12 243.274 108.12C244.25 108.12 245.119 108.379 245.881 108.897C246.659 109.401 247.277 110.087 247.734 110.956C248.192 111.81 248.42 112.771 248.42 113.838C248.42 114.906 248.184 115.874 247.711 116.743C247.254 117.612 246.629 118.306 245.836 118.825C245.058 119.328 244.173 119.579 243.182 119.579C242.481 119.579 241.833 119.45 241.238 119.191C240.643 118.916 240.125 118.527 239.683 118.024V124.2H238.013ZM242.862 118.138C243.609 118.138 244.273 117.955 244.852 117.589C245.447 117.208 245.912 116.697 246.247 116.057C246.598 115.401 246.773 114.669 246.773 113.861C246.773 113.038 246.598 112.306 246.247 111.665C245.912 111.025 245.447 110.521 244.852 110.155C244.273 109.774 243.609 109.584 242.862 109.584C242.206 109.584 241.596 109.721 241.032 109.995C240.483 110.255 240.033 110.628 239.683 111.116V116.583C240.048 117.071 240.506 117.452 241.055 117.727C241.619 118.001 242.221 118.138 242.862 118.138Z" fill="#222222"/>
<path d="M253.146 119.419V108.257H254.702V109.218C254.976 108.821 255.274 108.539 255.594 108.371C255.929 108.188 256.311 108.097 256.737 108.097C257.225 108.097 257.66 108.219 258.041 108.463C258.423 108.692 258.72 109.019 258.933 109.446C259.238 108.974 259.589 108.631 259.986 108.417C260.397 108.204 260.862 108.097 261.381 108.097C262.128 108.097 262.73 108.371 263.188 108.92C263.661 109.469 263.897 110.186 263.897 111.07V119.419H262.364V111.482C262.364 110.826 262.227 110.308 261.953 109.927C261.678 109.545 261.282 109.355 260.763 109.355C260.474 109.355 260.207 109.423 259.963 109.561C259.719 109.683 259.482 109.927 259.254 110.293C259.284 110.415 259.299 110.544 259.299 110.682C259.315 110.804 259.322 110.933 259.322 111.07V119.419H257.79V111.482C257.79 110.826 257.645 110.308 257.355 109.927C257.081 109.545 256.676 109.355 256.143 109.355C255.884 109.355 255.632 109.416 255.388 109.538C255.144 109.645 254.915 109.866 254.702 110.201V119.419H253.146Z" fill="#222222"/>
<path d="M274.41 119.648C273.343 119.648 272.382 119.396 271.528 118.893C270.674 118.375 269.995 117.681 269.492 116.812C269.004 115.927 268.76 114.936 268.76 113.838C268.76 112.74 268.997 111.757 269.469 110.887C269.942 110.018 270.582 109.332 271.391 108.829C272.214 108.326 273.129 108.074 274.136 108.074C275.188 108.074 276.126 108.326 276.949 108.829C277.772 109.317 278.421 109.988 278.893 110.842C279.366 111.68 279.602 112.633 279.602 113.701V114.204H270.384C270.445 114.967 270.659 115.653 271.025 116.263C271.391 116.857 271.871 117.33 272.466 117.681C273.076 118.016 273.747 118.184 274.479 118.184C275.134 118.184 275.744 118.062 276.309 117.818C276.888 117.559 277.368 117.208 277.75 116.766L278.916 117.795C278.321 118.405 277.643 118.87 276.88 119.191C276.118 119.496 275.294 119.648 274.41 119.648ZM270.43 112.969H277.955C277.864 112.298 277.635 111.703 277.269 111.185C276.919 110.666 276.469 110.262 275.92 109.972C275.386 109.667 274.784 109.515 274.113 109.515C273.487 109.515 272.916 109.66 272.397 109.95C271.879 110.239 271.444 110.643 271.093 111.162C270.758 111.68 270.537 112.283 270.43 112.969Z" fill="#222222"/>
<path d="M285.198 119.419V108.257H286.867V110.064C287.721 108.737 288.903 108.074 290.413 108.074C291.221 108.074 291.922 108.249 292.517 108.6C293.127 108.936 293.6 109.416 293.935 110.041C294.286 110.651 294.461 111.368 294.461 112.191V119.419H292.792V112.672C292.792 111.68 292.517 110.903 291.968 110.338C291.434 109.759 290.71 109.469 289.795 109.469C289.185 109.469 288.629 109.614 288.125 109.904C287.622 110.194 287.203 110.621 286.867 111.185V119.419H285.198Z" fill="#222222"/>
<path d="M307.285 119.648C306.034 119.648 305.074 119.381 304.403 118.848C303.747 118.299 303.419 117.506 303.419 116.469V109.629H299.599V108.257H303.419V105.192L305.089 104.803V108.257H310.235V109.629H305.089V116.194C305.089 116.896 305.279 117.399 305.661 117.704C306.042 118.009 306.591 118.161 307.308 118.161C307.75 118.161 308.207 118.116 308.68 118.024C309.153 117.933 309.671 117.78 310.235 117.567V119.076C309.732 119.259 309.237 119.396 308.749 119.488C308.261 119.595 307.773 119.648 307.285 119.648Z" fill="#222222"/>
<path d="M315.853 122.553V121.249H326.375V122.553H315.853Z" fill="#222222"/>
</svg>
